<svg xmlns="http://www.w3.org/2000/svg" viewBox="0 0 93 50.78"><defs><style>.cls-1{fill:#5f249f;}</style></defs><title>DXC Logo 2C RGB</title><g id="Logo_and_Copy" data-name="Logo and Copy"><path d="M20,60.2v6.38H18.21V60.2H15.77V58.58H22.4V60.2Zm4.79,6.38v-8h6v1.57H26.51v1.62h3.77v1.57H26.51V65h4.34v1.56Zm12.49.14a4,4,0,0,1-4.1-4.12v0a4.07,4.07,0,0,1,4.17-4.14,4.12,4.12,0,0,1,3.16,1.24L39.35,61a2.92,2.92,0,0,0-2-.9A2.37,2.37,0,0,0,35,62.56v0a2.38,2.38,0,0,0,2.32,2.52,2.9,2.9,0,0,0,2.1-.94l1.12,1.13A4.09,4.09,0,0,1,37.25,66.72ZM48,66.58V63.37H44.74v3.21H43v-8h1.76v3.17H48V58.58h1.76v8Zm10.51,0-3.88-5.09v5.09H52.88v-8h1.63l3.75,4.93V58.58H60v8Zm8.29.14a4.11,4.11,0,0,1-4.25-4.12v0a4.15,4.15,0,0,1,4.27-4.14,4.1,4.1,0,0,1,4.24,4.12v0A4.13,4.13,0,0,1,66.79,66.72Zm2.42-4.14a2.42,2.42,0,0,0-2.42-2.51,2.39,2.39,0,0,0-2.4,2.49v0a2.43,2.43,0,0,0,2.42,2.52,2.39,2.39,0,0,0,2.4-2.5Zm4.37,4v-8h1.77V65h4v1.6Zm11.69.14A4.1,4.1,0,0,1,81,62.6v0a4.26,4.26,0,0,1,8.51,0v0A4.14,4.14,0,0,1,85.27,66.72Zm2.42-4.14a2.42,2.42,0,0,0-2.42-2.51,2.39,2.39,0,0,0-2.4,2.49v0a2.43,2.43,0,0,0,2.42,2.52,2.39,2.39,0,0,0,2.4-2.5Zm8.18,4.14a4,4,0,0,1-4.21-4.12v0a4.11,4.11,0,0,1,4.2-4.14A4.37,4.37,0,0,1,99,59.54l-1.11,1.34a2.91,2.91,0,0,0-2.09-.81,2.4,2.4,0,0,0-2.3,2.49v0a2.4,2.4,0,0,0,2.43,2.54,2.77,2.77,0,0,0,1.65-.48V63.5H95.81V62h3.48v3.47A5.21,5.21,0,0,1,95.87,66.72Zm9.82-3.33v3.19h-1.76V63.43l-3.08-4.85h2.06l1.91,3.21,2-3.21h2Z" transform="translate(-15.77 -15.95)"/><path class="cls-1" d="M46.52,36.7a15.61,15.61,0,0,1-1.24,4.16A18.43,18.43,0,0,1,28.32,52H15.81v-7.2H28.32A10.75,10.75,0,0,0,36,41.66a11.34,11.34,0,0,0,2.86-5Zm0-5.49a15.43,15.43,0,0,0-1.24-4.15,18.42,18.42,0,0,0-3.92-5.76,18.64,18.64,0,0,0-13-5.35H15.81v7.19H28.32A10.72,10.72,0,0,1,36,26.26a11.3,11.3,0,0,1,2.86,4.95ZM62.23,40,52.68,52H43.2L57.51,34,43.2,16h9.48l9.55,12,9.56-12h9.48L67,34,81.27,52H71.79ZM85.56,36.7a11.54,11.54,0,0,0,2.86,5,10.75,10.75,0,0,0,7.72,3.11h12.52V52H96.14a18.43,18.43,0,0,1-17-11.11A14.91,14.91,0,0,1,78,36.7Zm0-5.49a11.5,11.5,0,0,1,2.86-4.95,10.72,10.72,0,0,1,7.72-3.12h12.52V16H96.14a18.62,18.62,0,0,0-13,5.35,18.42,18.42,0,0,0-3.92,5.76A14.75,14.75,0,0,0,78,31.21Z" transform="translate(-15.77 -15.95)"/></g></svg>